
        <svg xmlns="http://www.w3.org/2000/svg" xmlns:xlink="http://www.w3.org/1999/xlink" version="1.1" width="2738.3062377794377" 
        height="3142.403791347143" viewBox="0 0 2738.3062377794377 3142.403791347143">
			<rect fill="#000000" width="2738.3062377794377" height="3142.403791347143"/>
			<g transform="scale(7.120189567357151) translate(10, 10)">
				<defs id="SvgjsDefs1031"><linearGradient id="SvgjsLinearGradient1040"><stop id="SvgjsStop1041" stop-color="#905e26" offset="0"></stop><stop id="SvgjsStop1042" stop-color="#f5ec9b" offset="0.5"></stop><stop id="SvgjsStop1043" stop-color="#905e26" offset="1"></stop></linearGradient><linearGradient id="SvgjsLinearGradient1044"><stop id="SvgjsStop1045" stop-color="#905e26" offset="0"></stop><stop id="SvgjsStop1046" stop-color="#f5ec9b" offset="0.5"></stop><stop id="SvgjsStop1047" stop-color="#905e26" offset="1"></stop></linearGradient><linearGradient id="SvgjsLinearGradient1048"><stop id="SvgjsStop1049" stop-color="#905e26" offset="0"></stop><stop id="SvgjsStop1050" stop-color="#f5ec9b" offset="0.5"></stop><stop id="SvgjsStop1051" stop-color="#905e26" offset="1"></stop></linearGradient><linearGradient id="SvgjsLinearGradient1052"><stop id="SvgjsStop1053" stop-color="#905e26" offset="0"></stop><stop id="SvgjsStop1054" stop-color="#f5ec9b" offset="0.5"></stop><stop id="SvgjsStop1055" stop-color="#905e26" offset="1"></stop></linearGradient></defs><g id="SvgjsG1032" featureKey="dsJevG-0" transform="matrix(5.271878294923934,0,0,5.271878294923934,-76.60698147311342,-171.830283175177)" fill="url(#SvgjsLinearGradient1040)"><path xmlns="http://www.w3.org/2000/svg" style="font-size:medium;font-style:normal;font-variant:normal;font-weight:normal;font-stretch:normal;text-indent:0;text-align:start;text-decoration:none;line-height:normal;letter-spacing:normal;word-spacing:normal;text-transform:none;direction:ltr;block-progression:tb;writing-mode:lr-tb;text-anchor:start;baseline-shift:baseline;opacity:1;color:;fill:url(#SvgjsLinearGradient1040);fill-opacity:1;stroke:none;stroke-width:1.99999952000000000;marker:none;visibility:visible;display:inline;overflow:visible;enable-background:accumulate;font-family:Sans;-inkscape-font-specification:Sans" d="M 50 32.59375 L 49.3125 33.28125 L 16.3125 65.28125 L 14.53125 67 L 17 67 L 75 67 L 75 65 L 19.46875 65 L 50 35.375 L 63.3125 48.28125 L 65 49.9375 L 65 47.5625 L 65 46 L 73 46 L 73 57.28125 L 73 57.71875 L 73.3125 58 L 82.3125 66.71875 L 83.6875 65.28125 L 75 56.875 L 75 45 L 75 44 L 74 44 L 64 44 L 63 44 L 63 45 L 63 45.21875 L 50.6875 33.28125 L 50 32.59375 z "></path></g><g id="SvgjsG1033" featureKey="0oZDye-0" transform="matrix(13.389439827681942,0,0,13.389439827681942,0.23412512340485936,106.47054281355051)" fill="url(#SvgjsLinearGradient1044)"><path d="M4.36 14.46 l-0.34 0 l0 3.02 c0 2.18 0.64 2.28 1.82 2.28 l0 0.24 l-4.86 0 l0 -0.24 c0.88 0 1.24 -0.46 1.24 -2.24 l0 -8.48 c0 -1.12 -0.18 -1.56 -0.8 -1.7 c0.02 0.02 0.02 0.08 0.02 0.16 c0 0.24 -0.18 0.42 -0.42 0.42 c-0.26 0 -0.44 -0.18 -0.44 -0.42 c0 -0.3 0.14 -0.44 0.44 -0.44 l3.34 0 c3.62 0 6.08 0.44 6.08 3.7 s-2.46 3.7 -6.08 3.7 z M4.02 7.300000000000001 l0 6.92 l0.34 0 c2.24 0 4.06 -0.04 4.06 -3.46 c0 -3.48 -1.9 -3.46 -4.06 -3.46 l-0.34 0 z M20.479999999999997 16.18 l0.24 0 l0 3.82 l-9.22 0 l0 -0.24 c0.78 0 1 -0.62 1 -1.9 l0 -8.8 c0 -0.94 -0.12 -1.48 -0.58 -1.66 c0 0.02 0.02 0.06 0.02 0.12 c0 0.24 -0.2 0.42 -0.44 0.42 s-0.44 -0.18 -0.44 -0.42 s0.2 -0.44 0.44 -0.44 l8.98 0 l0 3.32 c0 0.3 -0.14 0.44 -0.44 0.44 c-0.24 0 -0.42 -0.18 -0.42 -0.44 s0.18 -0.44 0.42 -0.44 c0.06 0 0.12 0 0.16 0.02 c-0.48 -2.64 -3.4 -2.66 -4.82 -2.66 l-0.98 0 l0 5.74 l1.16 0 c0.5 0 2.44 0.06 2.54 -1.46 l0.24 0 l0 1.72 l-4 0 l0 0.32 l4 0 l0 1.72 l-0.24 0 c-0.1 -1.54 -2.06 -1.46 -2.54 -1.46 l-1.16 0 l0 5.86 l0.82 0 c1.66 0 4.86 0.1 5.26 -3.58 z M26.259999999999998 7.98 c-0.22 0 -0.44 -0.2 -0.44 -0.42 c0 -0.08 0.04 -0.12 0.04 -0.18 c-0.54 0.14 -0.88 0.46 -0.88 1.4 l0 9.26 c0 1.28 0.54 1.72 1.28 1.72 l0 0.24 l-4.44 0 l0 -0.24 c0.78 0 1.28 -0.44 1.28 -1.72 l0 -9.26 c0 -0.94 -0.3 -1.3 -0.88 -1.4 c0.02 0.02 0.02 0.08 0.02 0.18 c0 0.22 -0.18 0.42 -0.42 0.42 s-0.44 -0.2 -0.44 -0.42 c0 -0.26 0.2 -0.46 0.44 -0.46 l4.44 0 c0.24 0 0.46 0.2 0.46 0.46 c0 0.22 -0.22 0.42 -0.46 0.42 z"></path></g><g id="SvgjsG1034" featureKey="0oZDye-1" transform="matrix(1.44258514155417,0,0,1.44258514155417,7.163300641974319,373.9019067606336)" fill="url(#SvgjsLinearGradient1048)"><path d="M4.36 14.46 l-0.34 0 l0 3.02 c0 2.18 0.64 2.28 1.82 2.28 l0 0.24 l-4.86 0 l0 -0.24 c0.88 0 1.24 -0.46 1.24 -2.24 l0 -8.48 c0 -1.12 -0.18 -1.56 -0.8 -1.7 c0.02 0.02 0.02 0.08 0.02 0.16 c0 0.24 -0.18 0.42 -0.42 0.42 c-0.26 0 -0.44 -0.18 -0.44 -0.42 c0 -0.3 0.14 -0.44 0.44 -0.44 l3.34 0 c3.62 0 6.08 0.44 6.08 3.7 s-2.46 3.7 -6.08 3.7 z M4.02 7.300000000000001 l0 6.92 l0.34 0 c2.24 0 4.06 -0.04 4.06 -3.46 c0 -3.48 -1.9 -3.46 -4.06 -3.46 l-0.34 0 z M20.799999999999997 18.14 c0.32 1.36 1.5 1.6 1.96 1.6 l0 0.26 l-1.38 0 c-2.32 0 -2.1 -0.02 -3.1 -4 c-0.54 -1.92 -2.36 -1.92 -2.86 -1.92 l-0.84 0 l0 4.02 c0 1.26 0.38 1.64 1.16 1.64 l0 0.26 l-4.1 0 l0 -0.26 c0.8 0 1.14 -0.36 1.14 -1.88 l0 -9.12 c0 -0.94 -0.18 -1.28 -0.72 -1.36 c0.02 0.04 0.02 0.1 0.02 0.16 c0 0.24 -0.18 0.44 -0.44 0.44 c-0.24 0 -0.42 -0.2 -0.42 -0.44 s0.18 -0.44 0.42 -0.44 l3.5 0 c3.66 0 5.66 0.46 5.66 3.5 c0 2.5 -1.42 3.24 -3.42 3.34 c1.26 0.1 2.46 0.16 3.42 4.2 z M14.579999999999998 13.84 l0.56 0 c2.06 0 3.66 0.02 3.66 -3.24 c0 -3.3 -1.7 -3.24 -3.66 -3.24 l-0.56 0 l0 6.48 z M32.78 16.18 l0.24 0 l0 3.82 l-9.22 0 l0 -0.24 c0.78 0 1 -0.62 1 -1.9 l0 -8.8 c0 -0.94 -0.12 -1.48 -0.58 -1.66 c0 0.02 0.02 0.06 0.02 0.12 c0 0.24 -0.2 0.42 -0.44 0.42 s-0.44 -0.18 -0.44 -0.42 s0.2 -0.44 0.44 -0.44 l8.98 0 l0 3.32 c0 0.3 -0.14 0.44 -0.44 0.44 c-0.24 0 -0.42 -0.18 -0.42 -0.44 s0.18 -0.44 0.42 -0.44 c0.06 0 0.12 0 0.16 0.02 c-0.48 -2.64 -3.4 -2.66 -4.82 -2.66 l-0.98 0 l0 5.74 l1.16 0 c0.5 0 2.44 0.06 2.54 -1.46 l0.24 0 l0 1.72 l-4 0 l0 0.32 l4 0 l0 1.72 l-0.24 0 c-0.1 -1.54 -2.06 -1.46 -2.54 -1.46 l-1.16 0 l0 5.86 l0.82 0 c1.66 0 4.86 0.1 5.26 -3.58 z M44.34 15.58 l0 0.1 c0 2.1 0.02 3.32 0.08 4.22 l-0.36 0 c-0.04 -0.34 -0.08 -0.56 -0.14 -0.7 c-1.12 0.68 -2.08 0.88 -3.8 0.88 c-3.74 0 -6.26 -2.5 -6.26 -6.52 c0 -4.08 2.52 -6.5 6.26 -6.5 c1.62 0 2.8 0.3 3.84 0.92 c0.06 -0.16 0.04 -0.54 0.1 -0.84 l0.36 0 c-0.06 0.86 -0.08 1.98 -0.08 4.04 l0 0.04 l0 0.06 c-0.02 0.22 -0.2 0.38 -0.42 0.38 c-0.26 0 -0.44 -0.2 -0.44 -0.44 c0 -0.22 0.18 -0.38 0.42 -0.44 c-0.14 -0.62 -0.22 -1.04 -0.36 -1.38 c-0.8 -1.66 -2.26 -2.12 -3.42 -2.12 c-1.88 0 -3.94 0.82 -3.94 6.28 c0 5.54 2.1 6.28 3.94 6.28 c0.86 0 1.96 -0.3 2.78 -1.12 c0.08 -0.08 0.18 -0.18 0.26 -0.32 c0.46 -0.6 0.6 -1.2 0.76 -2.34 c-0.26 0 -0.44 -0.2 -0.44 -0.44 c0 -0.22 0.18 -0.44 0.44 -0.44 s0.4 0.14 0.42 0.4 z M50.620000000000005 7.98 c-0.22 0 -0.44 -0.2 -0.44 -0.42 c0 -0.08 0.04 -0.12 0.04 -0.18 c-0.54 0.14 -0.88 0.46 -0.88 1.4 l0 9.26 c0 1.28 0.54 1.72 1.28 1.72 l0 0.24 l-4.44 0 l0 -0.24 c0.78 0 1.28 -0.44 1.28 -1.72 l0 -9.26 c0 -0.94 -0.3 -1.3 -0.88 -1.4 c0.02 0.02 0.02 0.08 0.02 0.18 c0 0.22 -0.18 0.42 -0.42 0.42 s-0.44 -0.2 -0.44 -0.42 c0 -0.26 0.2 -0.46 0.44 -0.46 l4.44 0 c0.24 0 0.46 0.2 0.46 0.46 c0 0.22 -0.22 0.42 -0.46 0.42 z M55.540000000000006 11.58 l3.04 2 c2.44 1.58 2.86 3.66 1.9 5.16 c-0.18 0.28 -0.42 0.52 -0.74 0.74 c-0.56 0.38 -1.44 0.74 -2.88 0.74 c-1.52 0 -2.58 -0.24 -3.3 -0.5 c-0.42 -0.14 -0.78 -0.32 -1.06 -0.52 l0 -3.52 l0.02 0 l-0.02 -0.02 c0 -0.24 0.2 -0.42 0.44 -0.42 c0.22 0 0.44 0.18 0.44 0.42 c0 0.26 -0.22 0.44 -0.44 0.44 c-0.08 0 -0.14 -0.02 -0.18 -0.04 c0.26 2.08 1.16 3.92 4.1 3.92 c2.8 0 3.12 -3.08 1 -4.62 l-3.04 -1.96 c-1.72 -1.14 -3.38 -2.78 -2 -4.96 c0.18 -0.26 0.44 -0.5 0.76 -0.72 c0.54 -0.38 1.42 -0.72 2.7 -0.72 c1.34 0 2.36 0.22 3.08 0.44 c0.42 0.14 0.8 0.28 1.1 0.44 l0 3.04 l0 0.04 c0 0.22 -0.18 0.44 -0.42 0.44 c-0.26 0 -0.44 -0.22 -0.44 -0.44 c0 -0.24 0.18 -0.46 0.44 -0.46 c0.02 0 0.06 0.04 0.12 0.04 c-0.26 -1.66 -1.06 -3.3 -3.88 -3.3 c-1.98 0 -3.48 2.56 -0.74 4.34 z M66.88000000000001 7.98 c-0.22 0 -0.44 -0.2 -0.44 -0.42 c0 -0.08 0.04 -0.12 0.04 -0.18 c-0.54 0.14 -0.88 0.46 -0.88 1.4 l0 9.26 c0 1.28 0.54 1.72 1.28 1.72 l0 0.24 l-4.44 0 l0 -0.24 c0.78 0 1.28 -0.44 1.28 -1.72 l0 -9.26 c0 -0.94 -0.3 -1.3 -0.88 -1.4 c0.02 0.02 0.02 0.08 0.02 0.18 c0 0.22 -0.18 0.42 -0.42 0.42 s-0.44 -0.2 -0.44 -0.42 c0 -0.26 0.2 -0.46 0.44 -0.46 l4.44 0 c0.24 0 0.46 0.2 0.46 0.46 c0 0.22 -0.22 0.42 -0.46 0.42 z M74.02000000000001 7.140000000000001 c3.98 0 5.88 3.04 5.88 6.64 s-1.9 6.44 -5.88 6.44 c-3.96 0 -5.88 -2.84 -5.88 -6.44 s1.92 -6.64 5.88 -6.64 z M74.02000000000001 7.380000000000001 c-2.14 0 -3.78 1.44 -3.78 6.34 l7.56 0 c0 -4.9 -1.64 -6.34 -3.78 -6.34 z M77.80000000000001 13.940000000000001 l-7.56 0 l0 0.28 l7.56 0 l0 -0.28 z M74.02000000000001 19.98 c2.06 0 3.62 -1.1 3.78 -5.52 l-7.56 0 c0.16 4.42 1.7 5.52 3.78 5.52 z M89.66000000000003 7.08 l5.26 0 l0 0.2 c-2.68 0 -2.62 2.66 -2.62 4.36 l0 8.36 l-0.58 0 l-7.8 -10.06 l0 5.48 c0 1.62 0 4.34 2.4 4.34 l0 0.24 l-5.32 0 l0 -0.24 c2.68 0 2.68 -2.7 2.68 -4.34 l0 -5.74 l-0.76 -0.98 c-0.62 -0.78 -1.04 -1.12 -1.38 -1.28 l0 0.1 c0 0.24 -0.22 0.42 -0.46 0.42 s-0.44 -0.18 -0.44 -0.42 c0 -0.26 0.2 -0.44 0.44 -0.44 l0.04 0 l3.04 0 l7.9 10.24 l0 -5.68 c0 -1.7 0.06 -4.36 -2.4 -4.36 l0 -0.2 z M110.84000000000002 16.18 l0.24 0 l0 3.82 l-9.22 0 l0 -0.24 c0.78 0 1 -0.62 1 -1.9 l0 -8.8 c0 -0.94 -0.12 -1.48 -0.58 -1.66 c0 0.02 0.02 0.06 0.02 0.12 c0 0.24 -0.2 0.42 -0.44 0.42 s-0.44 -0.18 -0.44 -0.42 s0.2 -0.44 0.44 -0.44 l8.98 0 l0 3.32 c0 0.3 -0.14 0.44 -0.44 0.44 c-0.24 0 -0.42 -0.18 -0.42 -0.44 s0.18 -0.44 0.42 -0.44 c0.06 0 0.12 0 0.16 0.02 c-0.48 -2.64 -3.4 -2.66 -4.82 -2.66 l-0.98 0 l0 5.74 l1.16 0 c0.5 0 2.44 0.06 2.54 -1.46 l0.24 0 l0 1.72 l-4 0 l0 0.32 l4 0 l0 1.72 l-0.24 0 c-0.1 -1.54 -2.06 -1.46 -2.54 -1.46 l-1.16 0 l0 5.86 l0.82 0 c1.66 0 4.86 0.1 5.26 -3.58 z M123.26 18.14 c1 1.54 1.48 1.6 2.2 1.66 l0 0.2 l-4.7 0 l0 -0.2 c1.26 -0.22 0.38 -1.58 0.04 -2.1 l-2.12 -3.36 l-0.98 1.52 c-1.12 2.12 -2.44 3.94 0 3.94 l0 0.2 l-4.72 0 l0 -0.2 c0.96 0 1.68 0.02 4.5 -4.14 l1.06 -1.54 l-2.26 -3.32 c-0.42 -0.62 -0.82 -1.22 -1.2 -1.82 c-0.86 -1.22 -1.36 -1.54 -1.86 -1.62 c0.02 0.06 0.04 0.1 0.04 0.18 c0 0.24 -0.2 0.42 -0.44 0.42 s-0.44 -0.18 -0.44 -0.42 s0.18 -0.44 0.42 -0.44 l5.06 0 c0.22 0 0.44 0.18 0.44 0.44 c0 0.24 -0.22 0.42 -0.44 0.42 c-0.24 0 -0.46 -0.18 -0.46 -0.42 c0 -0.06 0.04 -0.1 0.04 -0.12 c-0.46 0.18 -0.62 0.76 0.2 2.04 l1.94 3.02 l0.94 -1.38 c0.96 -1.82 2.2 -3.76 -0.26 -3.76 l0 -0.24 l5.1 0 l0 0.24 c-1.1 0 -2.06 -0.04 -4.66 3.94 l-0.96 1.44 c0.44 0.64 1.28 2 2.08 3.18 c0.44 0.7 0.92 1.46 1.44 2.24 z M137.76 7.119999999999999 l0 3.22 l0 0.02 c0 0.24 -0.18 0.44 -0.42 0.44 s-0.44 -0.2 -0.44 -0.44 s0.2 -0.44 0.44 -0.44 c0.06 0 0.1 0.02 0.16 0.02 c-0.32 -2.56 -3.1 -2.58 -3.34 -2.58 l-1.1 0 l0 10.86 c0 1.2 0.58 1.54 1.36 1.54 l0 0.24 l-4.48 0 l0 -0.24 c0.78 0 1.32 -0.34 1.32 -1.54 l0 -10.86 l-1.08 0 c-0.54 0 -3.08 0.02 -3.34 2.58 c0.04 -0.02 0.1 -0.02 0.16 -0.02 c0.26 0 0.44 0.18 0.44 0.42 c0 0.3 -0.14 0.44 -0.44 0.44 c-0.24 0 -0.42 -0.18 -0.42 -0.44 l0 -3.22 l11.18 0 z M148.36 16.18 l0.24 0 l0 3.82 l-9.22 0 l0 -0.24 c0.78 0 1 -0.62 1 -1.9 l0 -8.8 c0 -0.94 -0.12 -1.48 -0.58 -1.66 c0 0.02 0.02 0.06 0.02 0.12 c0 0.24 -0.2 0.42 -0.44 0.42 s-0.44 -0.18 -0.44 -0.42 s0.2 -0.44 0.44 -0.44 l8.98 0 l0 3.32 c0 0.3 -0.14 0.44 -0.44 0.44 c-0.24 0 -0.42 -0.18 -0.42 -0.44 s0.18 -0.44 0.42 -0.44 c0.06 0 0.12 0 0.16 0.02 c-0.48 -2.64 -3.4 -2.66 -4.82 -2.66 l-0.98 0 l0 5.74 l1.16 0 c0.5 0 2.44 0.06 2.54 -1.46 l0.24 0 l0 1.72 l-4 0 l0 0.32 l4 0 l0 1.72 l-0.24 0 c-0.1 -1.54 -2.06 -1.46 -2.54 -1.46 l-1.16 0 l0 5.86 l0.82 0 c1.66 0 4.86 0.1 5.26 -3.58 z M159.52 18.14 c0.32 1.36 1.5 1.6 1.96 1.6 l0 0.26 l-1.38 0 c-2.32 0 -2.1 -0.02 -3.1 -4 c-0.54 -1.92 -2.36 -1.92 -2.86 -1.92 l-0.84 0 l0 4.02 c0 1.26 0.38 1.64 1.16 1.64 l0 0.26 l-4.1 0 l0 -0.26 c0.8 0 1.14 -0.36 1.14 -1.88 l0 -9.12 c0 -0.94 -0.18 -1.28 -0.72 -1.36 c0.02 0.04 0.02 0.1 0.02 0.16 c0 0.24 -0.18 0.44 -0.44 0.44 c-0.24 0 -0.42 -0.2 -0.42 -0.44 s0.18 -0.44 0.42 -0.44 l3.5 0 c3.66 0 5.66 0.46 5.66 3.5 c0 2.5 -1.42 3.24 -3.42 3.34 c1.26 0.1 2.46 0.16 3.42 4.2 z M153.3 13.84 l0.56 0 c2.06 0 3.66 0.02 3.66 -3.24 c0 -3.3 -1.7 -3.24 -3.66 -3.24 l-0.56 0 l0 6.48 z M166.8 7.98 c-0.22 0 -0.44 -0.2 -0.44 -0.42 c0 -0.08 0.04 -0.12 0.04 -0.18 c-0.54 0.14 -0.88 0.46 -0.88 1.4 l0 9.26 c0 1.28 0.54 1.72 1.28 1.72 l0 0.24 l-4.44 0 l0 -0.24 c0.78 0 1.28 -0.44 1.28 -1.72 l0 -9.26 c0 -0.94 -0.3 -1.3 -0.88 -1.4 c0.02 0.02 0.02 0.08 0.02 0.18 c0 0.22 -0.18 0.42 -0.42 0.42 s-0.44 -0.2 -0.44 -0.42 c0 -0.26 0.2 -0.46 0.44 -0.46 l4.44 0 c0.24 0 0.46 0.2 0.46 0.46 c0 0.22 -0.22 0.42 -0.46 0.42 z M173.94 7.140000000000001 c3.98 0 5.88 3.04 5.88 6.64 s-1.9 6.44 -5.88 6.44 c-3.96 0 -5.88 -2.84 -5.88 -6.44 s1.92 -6.64 5.88 -6.64 z M173.94 7.380000000000001 c-2.14 0 -3.78 1.44 -3.78 6.34 l7.56 0 c0 -4.9 -1.64 -6.34 -3.78 -6.34 z M177.72 13.940000000000001 l-7.56 0 l0 0.28 l7.56 0 l0 -0.28 z M173.94 19.98 c2.06 0 3.62 -1.1 3.78 -5.52 l-7.56 0 c0.16 4.42 1.7 5.52 3.78 5.52 z M190.29999999999998 18.14 c0.32 1.36 1.5 1.6 1.96 1.6 l0 0.26 l-1.38 0 c-2.32 0 -2.1 -0.02 -3.1 -4 c-0.54 -1.92 -2.36 -1.92 -2.86 -1.92 l-0.84 0 l0 4.02 c0 1.26 0.38 1.64 1.16 1.64 l0 0.26 l-4.1 0 l0 -0.26 c0.8 0 1.14 -0.36 1.14 -1.88 l0 -9.12 c0 -0.94 -0.18 -1.28 -0.72 -1.36 c0.02 0.04 0.02 0.1 0.02 0.16 c0 0.24 -0.18 0.44 -0.44 0.44 c-0.24 0 -0.42 -0.2 -0.42 -0.44 s0.18 -0.44 0.42 -0.44 l3.5 0 c3.66 0 5.66 0.46 5.66 3.5 c0 2.5 -1.42 3.24 -3.42 3.34 c1.26 0.1 2.46 0.16 3.42 4.2 z M184.07999999999998 13.84 l0.56 0 c2.06 0 3.66 0.02 3.66 -3.24 c0 -3.3 -1.7 -3.24 -3.66 -3.24 l-0.56 0 l0 6.48 z M196.45999999999998 11.58 l3.04 2 c2.44 1.58 2.86 3.66 1.9 5.16 c-0.18 0.28 -0.42 0.52 -0.74 0.74 c-0.56 0.38 -1.44 0.74 -2.88 0.74 c-1.52 0 -2.58 -0.24 -3.3 -0.5 c-0.42 -0.14 -0.78 -0.32 -1.06 -0.52 l0 -3.52 l0.02 0 l-0.02 -0.02 c0 -0.24 0.2 -0.42 0.44 -0.42 c0.22 0 0.44 0.18 0.44 0.42 c0 0.26 -0.22 0.44 -0.44 0.44 c-0.08 0 -0.14 -0.02 -0.18 -0.04 c0.26 2.08 1.16 3.92 4.1 3.92 c2.8 0 3.12 -3.08 1 -4.62 l-3.04 -1.96 c-1.72 -1.14 -3.38 -2.78 -2 -4.96 c0.18 -0.26 0.44 -0.5 0.76 -0.72 c0.54 -0.38 1.42 -0.72 2.7 -0.72 c1.34 0 2.36 0.22 3.08 0.44 c0.42 0.14 0.8 0.28 1.1 0.44 l0 3.04 l0 0.04 c0 0.22 -0.18 0.44 -0.42 0.44 c-0.26 0 -0.44 -0.22 -0.44 -0.44 c0 -0.24 0.18 -0.46 0.44 -0.46 c0.02 0 0.06 0.04 0.12 0.04 c-0.26 -1.66 -1.06 -3.3 -3.88 -3.3 c-1.98 0 -3.48 2.56 -0.74 4.34 z M213.44 7.98 c-0.22 0 -0.44 -0.2 -0.44 -0.42 c0 -0.08 0.04 -0.12 0.04 -0.18 c-0.54 0.14 -0.88 0.46 -0.88 1.4 l0 9.26 c0 1.28 0.54 1.72 1.28 1.72 l0 0.24 l-4.44 0 l0 -0.24 c0.78 0 1.28 -0.44 1.28 -1.72 l0 -9.26 c0 -0.94 -0.3 -1.3 -0.88 -1.4 c0.02 0.02 0.02 0.08 0.02 0.18 c0 0.22 -0.18 0.42 -0.42 0.42 s-0.44 -0.2 -0.44 -0.42 c0 -0.26 0.2 -0.46 0.44 -0.46 l4.44 0 c0.24 0 0.46 0.2 0.46 0.46 c0 0.22 -0.22 0.42 -0.46 0.42 z M223.96 7.08 l5.26 0 l0 0.2 c-2.68 0 -2.62 2.66 -2.62 4.36 l0 8.36 l-0.58 0 l-7.8 -10.06 l0 5.48 c0 1.62 0 4.34 2.4 4.34 l0 0.24 l-5.32 0 l0 -0.24 c2.68 0 2.68 -2.7 2.68 -4.34 l0 -5.74 l-0.76 -0.98 c-0.62 -0.78 -1.04 -1.12 -1.38 -1.28 l0 0.1 c0 0.24 -0.22 0.42 -0.46 0.42 s-0.44 -0.18 -0.44 -0.42 c0 -0.26 0.2 -0.44 0.44 -0.44 l0.04 0 l3.04 0 l7.9 10.24 l0 -5.68 c0 -1.7 0.06 -4.36 -2.4 -4.36 l0 -0.2 z M240.06 15.58 l0 0.1 c0 2.1 0.02 3.32 0.08 4.22 l-0.36 0 c-0.04 -0.34 -0.08 -0.56 -0.14 -0.7 c-1.12 0.68 -2.08 0.88 -3.8 0.88 c-3.74 0 -6.26 -2.5 -6.26 -6.52 c0 -4.08 2.52 -6.5 6.26 -6.5 c1.62 0 2.8 0.3 3.84 0.92 c0.06 -0.16 0.04 -0.54 0.1 -0.84 l0.36 0 c-0.06 0.86 -0.08 1.98 -0.08 4.04 l0 0.04 l0 0.06 c-0.02 0.22 -0.2 0.38 -0.42 0.38 c-0.26 0 -0.44 -0.2 -0.44 -0.44 c0 -0.22 0.18 -0.38 0.42 -0.44 c-0.14 -0.62 -0.22 -1.04 -0.36 -1.38 c-0.8 -1.66 -2.26 -2.12 -3.42 -2.12 c-1.88 0 -3.94 0.82 -3.94 6.28 c0 5.54 2.1 6.28 3.94 6.28 c0.86 0 1.96 -0.3 2.78 -1.12 c0.08 -0.08 0.18 -0.18 0.26 -0.32 c0.46 -0.6 0.6 -1.2 0.76 -2.34 c-0.26 0 -0.44 -0.2 -0.44 -0.44 c0 -0.22 0.18 -0.44 0.44 -0.44 s0.4 0.14 0.42 0.4 z M241.04000000000002 18.94 c0 -0.62 0.46 -1.1 1.08 -1.1 c0.58 0 1.08 0.48 1.08 1.1 s-0.5 1.08 -1.08 1.08 c-0.62 0 -1.08 -0.46 -1.08 -1.08 z"></path></g><g id="SvgjsG1035" featureKey="mo6dJk-0" transform="matrix(0.5757662106442447,0,0,0.5757662106442447,23.044228040912145,409.6490405552137)" fill="url(#SvgjsLinearGradient1052)"><path d="M5.84 20.16 q-1.1 0 -2.22 -0.07 t-1.96 -0.29 l0 -13.46 q0.44 -0.08 0.94 -0.15 t1.02 -0.11 t1.03 -0.06 t0.97 -0.02 q1.26 0 2.34 0.19 t1.87 0.63 t1.23 1.16 t0.44 1.78 q0 0.98 -0.47 1.68 t-1.31 1.12 q1.26 0.42 1.86 1.24 t0.6 2.08 q0 2.14 -1.56 3.21 t-4.78 1.07 z M4.14 13.76 l0 4.22 q0.42 0.04 0.9 0.06 t0.88 0.02 q0.78 0 1.45 -0.1 t1.16 -0.35 t0.78 -0.67 t0.29 -1.08 q0 -1.18 -0.86 -1.64 t-2.38 -0.46 l-2.22 0 z M4.14 11.78 l1.78 0 q1.44 0 2.26 -0.41 t0.82 -1.47 q0 -1 -0.85 -1.42 t-2.21 -0.42 q-0.58 0 -1.03 0.02 t-0.77 0.06 l0 3.64 z M37.82 20.3 q-1.42 0 -2.44 -0.41 t-1.69 -1.15 t-0.99 -1.74 t-0.32 -2.2 l0 -8.66 l2.54 0 l0 8.42 q0 0.94 0.21 1.61 t0.6 1.09 t0.92 0.62 t1.19 0.2 t1.2 -0.2 t0.93 -0.62 t0.6 -1.09 t0.21 -1.61 l0 -8.42 l2.54 0 l0 8.66 q0 1.2 -0.33 2.2 t-1 1.74 t-1.71 1.15 t-2.46 0.41 z M64.22 6.140000000000001 l2.52 0 l0 13.86 l-2.52 0 l0 -13.86 z M96.5 17.82 l0 2.18 l-8.76 0 l0 -13.86 l2.52 0 l0 11.68 l6.24 0 z M118.62 17.92 q0.22 0.02 0.58 0.03 t0.98 0.01 q2.54 0 3.79 -1.29 t1.25 -3.61 q0 -2.36 -1.22 -3.62 t-3.78 -1.26 q-1.12 0 -1.6 0.06 l0 9.68 z M127.86 13.059999999999999 q0 1.8 -0.56 3.13 t-1.59 2.22 t-2.48 1.32 t-3.21 0.43 q-0.84 0 -1.9 -0.07 t-2.02 -0.29 l0 -13.46 q0.96 -0.22 2.04 -0.28 t1.92 -0.06 q1.74 0 3.18 0.41 t2.47 1.28 t1.59 2.2 t0.56 3.17 z M148.29999999999998 6.140000000000001 l2.52 0 l0 13.86 l-2.52 0 l0 -13.86 z M181.16 20 q-0.68 -1.14 -1.52 -2.45 t-1.74 -2.64 t-1.83 -2.58 t-1.77 -2.25 l0 9.92 l-2.48 0 l0 -13.86 l2.06 0 q0.8 0.84 1.72 1.99 t1.85 2.39 t1.8 2.49 t1.55 2.33 l0 -9.2 l2.5 0 l0 13.86 l-2.14 0 z M210.77999999999997 8.04 q-2.14 0 -3.27 1.33 t-1.13 3.69 q0 1.12 0.27 2.05 t0.8 1.59 t1.32 1.03 t1.85 0.37 q0.66 0 1.14 -0.05 t0.76 -0.13 l0 -4.98 l2.52 0 l0 6.66 q-0.52 0.2 -1.76 0.44 t-2.86 0.24 q-1.5 0 -2.74 -0.48 t-2.11 -1.4 t-1.35 -2.26 t-0.48 -3.08 t0.53 -3.08 t1.45 -2.27 t2.16 -1.41 t2.64 -0.48 q0.96 0 1.71 0.13 t1.29 0.29 t0.89 0.34 t0.49 0.26 l-0.76 2.06 q-0.6 -0.36 -1.49 -0.61 t-1.87 -0.25 z M266.86 7.699999999999999 q0.32 1.08 0.68 2.25 t0.75 2.34 t0.78 2.3 t0.75 2.13 q0.3 -1.08 0.58 -2.35 t0.56 -2.64 t0.55 -2.79 t0.51 -2.8 l2.6 0 q-0.7 3.76 -1.56 7.23 t-1.92 6.63 l-2.4 0 q-1.56 -4.04 -3.02 -8.82 q-0.74 2.42 -1.5 4.6 t-1.52 4.22 l-2.4 0 q-1.08 -3.16 -1.93 -6.63 t-1.55 -7.23 l2.7 0 q0.24 1.36 0.51 2.78 t0.56 2.79 t0.59 2.65 t0.6 2.36 q0.38 -1.02 0.77 -2.15 t0.77 -2.3 t0.73 -2.33 t0.65 -2.24 l2.16 0 z M294.42 6.140000000000001 l2.52 0 l0 13.86 l-2.52 0 l0 -13.86 z M327.59999999999997 6.140000000000001 l0 2.18 l-4.26 0 l0 11.68 l-2.54 0 l0 -11.68 l-4.26 0 l0 -2.18 l11.06 0 z M355.73999999999995 6.140000000000001 l2.52 0 l0 13.86 l-2.52 0 l0 -6.14 l-6.02 0 l0 6.14 l-2.52 0 l0 -13.86 l2.52 0 l0 5.54 l6.02 0 l0 -5.54 z M405.55999999999995 20 q-1.5 -3.24 -2.89 -6.78 t-2.59 -7.08 l2.78 0 q0.48 1.4 0.98 2.86 t1 2.87 t1 2.73 t0.98 2.42 q0.46 -1.1 0.96 -2.41 t1.01 -2.73 t1.01 -2.88 t0.96 -2.86 l2.7 0 q-1.22 3.54 -2.6 7.08 t-2.88 6.78 l-2.42 0 z M432.93999999999994 6.140000000000001 l2.52 0 l0 13.86 l-2.52 0 l0 -13.86 z M459.8199999999999 18.12 q1.36 0 1.98 -0.46 t0.62 -1.3 q0 -0.5 -0.21 -0.86 t-0.6 -0.65 t-0.95 -0.54 t-1.28 -0.49 q-0.72 -0.26 -1.39 -0.57 t-1.18 -0.77 t-0.82 -1.1 t-0.31 -1.54 q0 -1.88 1.3 -2.95 t3.54 -1.07 q1.3 0 2.31 0.29 t1.59 0.63 l-0.78 2.04 q-0.68 -0.38 -1.49 -0.58 t-1.67 -0.2 q-1.02 0 -1.59 0.42 t-0.57 1.18 q0 0.46 0.19 0.79 t0.54 0.59 t0.82 0.48 t1.03 0.42 q0.98 0.36 1.75 0.73 t1.3 0.88 t0.81 1.2 t0.28 1.67 q0 1.88 -1.33 2.91 t-3.89 1.03 q-0.86 0 -1.57 -0.11 t-1.26 -0.27 t-0.95 -0.33 t-0.64 -0.31 l0.74 -2.06 q0.54 0.3 1.46 0.6 t2.22 0.3 z M484.93999999999994 6.140000000000001 l2.52 0 l0 13.86 l-2.52 0 l0 -13.86 z M510.5199999999999 13.059999999999999 q0 1.14 0.28 2.07 t0.81 1.58 t1.29 1.01 t1.72 0.36 q0.94 0 1.7 -0.36 t1.29 -1.01 t0.81 -1.58 t0.28 -2.07 t-0.28 -2.07 t-0.81 -1.58 t-1.29 -1.01 t-1.7 -0.36 q-0.96 0 -1.72 0.36 t-1.29 1.02 t-0.81 1.58 t-0.28 2.06 z M521.3399999999999 13.059999999999999 q0 1.78 -0.53 3.14 t-1.44 2.27 t-2.13 1.37 t-2.6 0.46 t-2.61 -0.46 t-2.14 -1.37 t-1.45 -2.27 t-0.54 -3.14 t0.54 -3.13 t1.47 -2.27 t2.15 -1.38 t2.58 -0.46 t2.58 0.46 t2.13 1.38 t1.45 2.27 t0.54 3.13 z M551.1199999999999 20 q-0.68 -1.14 -1.52 -2.45 t-1.74 -2.64 t-1.83 -2.58 t-1.77 -2.25 l0 9.92 l-2.48 0 l0 -13.86 l2.06 0 q0.8 0.84 1.72 1.99 t1.85 2.39 t1.8 2.49 t1.55 2.33 l0 -9.2 l2.5 0 l0 13.86 l-2.14 0 z"></path></g>
			</g>
		</svg>
	